<?xml version="1.0" encoding="UTF-8"?>
<svg id="Layer_2" data-name="Layer 2" xmlns="http://www.w3.org/2000/svg" viewBox="0 0 50 50">
  <defs>
    <style>
      .cls-1 {
        fill: #797979;
      }
    </style>
  </defs>
  <g id="Layer_1-2" data-name="Layer 1">
    <g>
      <path class="cls-1" d="m16.92,15.38c2.18,2.54,4.86,3.86,8.11,3.86,3.24,0,5.91-1.34,8.08-3.86v29.94c-1.14-1.56-2.51-2.72-4.25-3.49,1.35-1.31,2.01-2.86,1.9-4.69-.1-1.56-.74-2.88-1.9-3.94-2.16-1.98-5.54-1.95-7.73.03-1.93,1.74-2.98,5.6-.05,8.55-.75.5-1.56.94-2.26,1.51-.69.56-1.27,1.26-1.89,1.89V15.38Zm5.02,8.2c.37,0,.74.01,1.11,0,.5-.02.75-.26.77-.75.02-.76.02-1.53,0-2.29-.01-.49-.27-.73-.78-.74-.73-.01-1.45-.01-2.18,0-.52,0-.79.26-.8.78-.02.73-.02,1.46,0,2.19.01.55.27.8.82.82.35,0,.71,0,1.06,0Zm6.11,0c.35,0,.71,0,1.06,0,.02,0,.03,0,.05,0,.51-.03.78-.27.8-.79.02-.75.02-1.49,0-2.24-.01-.49-.28-.74-.77-.75-.74-.01-1.49,0-2.23,0-.46,0-.74.24-.75.71-.02.78-.02,1.56,0,2.34,0,.47.28.72.74.73.37.01.74,0,1.11,0Zm0,6.14c.37,0,.74.01,1.11,0,.52-.02.78-.26.79-.79.02-.73.02-1.46,0-2.19-.01-.52-.27-.8-.78-.81-.74-.02-1.49-.02-2.23,0-.45,0-.74.25-.75.72-.02.78-.02,1.56,0,2.34,0,.47.28.71.74.72.37,0,.74,0,1.11,0Zm-6.14,0c.39,0,.78,0,1.16,0,.47,0,.73-.26.74-.72.02-.76.02-1.53,0-2.29-.01-.5-.27-.76-.76-.77-.74-.02-1.49-.02-2.23,0-.49.01-.76.27-.78.76-.02.76-.02,1.53,0,2.29.01.49.29.72.79.74.35.01.71,0,1.06,0Z"/>
      <path class="cls-1" d="m49.35,44.11c-1.12-.8-2.23-1.59-3.35-2.39.78-.76,1.39-1.74,1.65-2.91.34-1.53.11-2.97-.7-4.31-.15-.25-.11-.44-.08-.72.1-.83.1-1.69.02-2.52-.04-.42-.47-.64-.92-.65-.42,0-.85,0-1.27,0-1.09,0-1.27.13-1.53,1.16h-2.2c-.13-.28-.22-.63-.42-.86-.4-.46-2.71-.44-3.13,0-.11.12-.24.28-.25.43-.08.94-.23,1.89.18,2.8-1.64,2.43-1.38,5.54.74,7.59-1.1.79-2.22,1.59-3.32,2.37v-26.82c.12-.01.25-.03.37-.03,4.33,0,8.66,0,12.99,0,.84,0,1.22.38,1.22,1.21,0,8.48,0,16.97,0,25.45,0,.1,0,.19-.01.21Zm-10.34-19.66c-.25,0-.51,0-.76,0-.77.02-1.14.39-1.15,1.17,0,.51-.02,1.02,0,1.53.02.66.4,1.06,1.03,1.09.57.03,1.15.03,1.72,0,.62-.03.98-.41,1.01-1.05.02-.29,0-.58,0-.86,0-1.76-.12-1.88-1.86-1.88Zm6.13,0c-.29,0-.57-.01-.86,0-.66.03-1.01.39-1.04,1.06-.01.29,0,.58,0,.86,0,1.73.14,1.87,1.88,1.87,1.76,0,1.9-.14,1.9-1.92,0-1.74-.14-1.88-1.87-1.88Z"/>
      <path class="cls-1" d="m15.24,17.27v26.85c-1.09-.78-2.2-1.58-3.34-2.4.11-.12.29-.31.46-.51,1.55-1.86,1.78-4.47.58-6.58-.15-.26-.13-.48-.1-.78.08-.89.07-1.8.02-2.69-.02-.38-.35-.56-.74-.55-.69,0-1.39,0-2.08,0-.67,0-.87.2-.91.87,0,.1-.02.2-.03.29h-2.3c-.01-.15-.02-.32-.03-.48-.04-.42-.27-.67-.69-.67-.79-.02-1.59-.02-2.38,0-.42,0-.68.28-.68.68.02.94.09,1.88.14,2.83,0,.09-.01.2-.06.28-1.49,2.32-1.09,5.42.91,7.32-1.11.79-2.22,1.58-3.33,2.37,0,0-.03-.12-.03-.24,0-8.47,0-16.94,0-25.4,0-.79.37-1.21,1.12-1.21,4.42,0,8.83,0,13.25,0,.07,0,.13.01.24.02Zm-10.32,7.19c-.39,0-.78-.01-1.16,0-.49.02-.75.27-.76.77-.02.75-.01,1.49,0,2.24,0,.45.25.75.71.77.79.03,1.59.03,2.38,0,.4-.02.66-.27.67-.69.01-.8.02-1.59,0-2.39-.01-.44-.28-.67-.72-.69-.37-.01-.74,0-1.11,0Zm4.21,1.89s0,0,0,0c0,.34,0,.68,0,1.02,0,.03,0,.07,0,.1.03.5.27.77.75.78.76.02,1.52.02,2.28,0,.46-.01.72-.29.74-.75.02-.76.02-1.53,0-2.29-.01-.45-.26-.74-.73-.74-.78-.01-1.55-.01-2.33,0-.44,0-.68.27-.7.71-.02.39,0,.78,0,1.17Z"/>
      <path class="cls-1" d="m25,17.62c-4.83,0-8.74-3.93-8.75-8.78C16.24,3.95,20.15,0,25,0c4.85,0,8.77,3.95,8.75,8.83-.01,4.86-3.92,8.79-8.75,8.79Zm-2.25-3.58h4.5v-2.97h2.95v-4.55h-2.96v-2.92h-4.5v2.94h-2.91v4.55h2.93v2.96Z"/>
      <path class="cls-1" d="m7.95,50c-2.3,0-4.6,0-6.9,0-.91,0-1.21-.42-.97-1.31.97-3.55,4.23-6.04,7.89-6.02,3.66.01,6.91,2.52,7.86,6.07.22.84-.1,1.26-.98,1.26-2.3,0-4.6,0-6.9,0Z"/>
      <path class="cls-1" d="m24.97,50c-2.28,0-4.57,0-6.85,0-.91,0-1.23-.41-.99-1.29.96-3.54,4.22-6.05,7.88-6.04,3.66,0,6.91,2.5,7.87,6.05.23.86-.08,1.28-.95,1.28-2.32,0-4.63,0-6.95,0Z"/>
      <path class="cls-1" d="m42.04,50c-2.28,0-4.57,0-6.85,0-.95,0-1.25-.41-.99-1.33.97-3.53,4.21-6,7.85-6.01,3.65,0,6.88,2.46,7.86,5.99.26.95-.04,1.34-1.02,1.34-2.28,0-4.57,0-6.85,0Z"/>
      <path class="cls-1" d="m7.97,41.64c-2.28,0-4.14-1.83-4.16-4.12-.02-2.28,1.84-4.16,4.11-4.16,2.28,0,4.14,1.83,4.16,4.12.02,2.27-1.84,4.16-4.11,4.17Z"/>
      <path class="cls-1" d="m25,41.64c-2.28,0-4.14-1.86-4.14-4.14,0-2.28,1.86-4.14,4.13-4.14,2.28,0,4.13,1.86,4.14,4.14,0,2.28-1.86,4.14-4.13,4.14Z"/>
      <path class="cls-1" d="m42.03,41.64c-2.27,0-4.13-1.89-4.11-4.16.02-2.29,1.87-4.13,4.16-4.12,2.27,0,4.13,1.89,4.11,4.16-.02,2.29-1.87,4.13-4.16,4.12Z"/>
    </g>
  </g>
</svg>